<svg width="19" height="19" viewBox="0 0 19 19" fill="none" xmlns="http://www.w3.org/2000/svg">
<path d="M9.16548 16.8039C8.10887 16.8039 7.11591 16.6032 6.18661 16.202C5.2573 15.8007 4.44893 15.2566 3.7615 14.5697C3.07407 13.8823 2.52998 13.0739 2.12923 12.1446C1.72848 11.2153 1.52785 10.2223 1.52734 9.16573C1.52734 8.10912 1.72797 7.11616 2.12923 6.18685C2.53049 5.25755 3.07458 4.44918 3.7615 3.76174C4.44893 3.07431 5.2573 2.53022 6.18661 2.12947C7.11591 1.72873 8.10887 1.5281 9.16548 1.52759C10.2221 1.52759 11.215 1.72822 12.1444 2.12947C13.0737 2.53073 13.882 3.07482 14.5695 3.76174C15.2569 4.44918 15.8012 5.25755 16.2025 6.18685C16.6038 7.11616 16.8041 8.10912 16.8036 9.16573C16.8036 10.2223 16.603 11.2153 16.2017 12.1446C15.8005 13.0739 15.2564 13.8823 14.5695 14.5697C13.882 15.2571 13.0737 15.8015 12.1444 16.2027C11.215 16.604 10.2221 16.8044 9.16548 16.8039ZM9.16548 15.2762C9.85291 15.2762 10.5149 15.165 11.1514 14.9424C11.7879 14.7199 12.3735 14.3984 12.9082 13.9778L4.35345 5.42304C3.93336 5.95771 3.61179 6.5433 3.38876 7.17981C3.16572 7.81632 3.05446 8.47829 3.05497 9.16573C3.05497 10.8716 3.64693 12.3165 4.83084 13.5004C6.01475 14.6843 7.45963 15.2762 9.16548 15.2762ZM13.9775 12.9084C14.3976 12.3737 14.7192 11.7882 14.9422 11.1516C15.1652 10.5151 15.2765 9.85316 15.276 9.16573C15.276 7.45987 14.684 6.01499 13.5001 4.83108C12.3162 3.64717 10.8713 3.05522 9.16548 3.05522C8.47805 3.05522 7.81608 3.16648 7.17956 3.389C6.54305 3.61153 5.95746 3.93309 5.42279 4.3537L13.9775 12.9084Z" fill="white"/>
</svg>
