<svg width="16" height="15" viewBox="0 0 16 15" fill="none" xmlns="http://www.w3.org/2000/svg">
<path d="M6.86602 3.88143C6.79526 3.95133 6.73908 4.03459 6.70074 4.12637C6.6624 4.21815 6.64265 4.31663 6.64265 4.4161C6.64265 4.51557 6.6624 4.61404 6.70074 4.70582C6.73908 4.7976 6.79526 4.88086 6.86602 4.95077L8.31727 6.40201H1.29018C0.870083 6.40201 0.526367 6.74573 0.526367 7.16583C0.526367 7.58593 0.870083 7.92964 1.29018 7.92964H8.31727L6.86602 9.38089C6.79526 9.45079 6.73908 9.53405 6.70074 9.62583C6.6624 9.71761 6.64265 9.81609 6.64265 9.91556C6.64265 10.015 6.6624 10.1135 6.70074 10.2053C6.73908 10.2971 6.79526 10.3803 6.86602 10.4502C7.16391 10.7481 7.63747 10.7481 7.93536 10.4502L10.6775 7.70814C10.7483 7.63747 10.8044 7.55354 10.8428 7.46114C10.8811 7.36874 10.9008 7.26968 10.9008 7.16965C10.9008 7.06961 10.8811 6.97056 10.8428 6.87816C10.8044 6.78576 10.7483 6.70182 10.6775 6.63116L7.93536 3.88143C7.86545 3.81067 7.7822 3.75449 7.69042 3.71615C7.59864 3.6778 7.50016 3.65806 7.40069 3.65806C7.30122 3.65806 7.20274 3.6778 7.11096 3.71615C7.01918 3.75449 6.93593 3.81067 6.86602 3.88143ZM14.275 12.5125H8.92832C8.50822 12.5125 8.1645 12.8562 8.1645 13.2763C8.1645 13.6964 8.50822 14.0402 8.92832 14.0402H14.275C15.1152 14.0402 15.8026 13.3527 15.8026 12.5125V1.81913C15.8026 0.978936 15.1152 0.291504 14.275 0.291504H8.92832C8.50822 0.291504 8.1645 0.63522 8.1645 1.05532C8.1645 1.47542 8.50822 1.81913 8.92832 1.81913H14.275V12.5125Z" fill="white"/>
</svg>
