<svg width="19" height="19" viewBox="0 0 19 19" fill="none" xmlns="http://www.w3.org/2000/svg">
<g clip-path="url(#clip0_5_1144)">
<path d="M8.02213 15.2762C8.02213 15.58 8.14284 15.8714 8.3577 16.0863C8.57257 16.3012 8.86399 16.4219 9.16785 16.4219C9.47172 16.4219 9.76313 16.3012 9.978 16.0863C10.1929 15.8714 10.3136 15.58 10.3136 15.2762V10.3114H15.2784C15.5822 10.3114 15.8736 10.1907 16.0885 9.9758C16.3034 9.76094 16.4241 9.46952 16.4241 9.16565C16.4241 8.86179 16.3034 8.57037 16.0885 8.35551C15.8736 8.14064 15.5822 8.01993 15.2784 8.01993H10.3136V3.05514C10.3136 2.75128 10.1929 2.45986 9.978 2.245C9.76313 2.03013 9.47172 1.90942 9.16785 1.90942C8.86399 1.90942 8.57257 2.03013 8.3577 2.245C8.14284 2.45986 8.02213 2.75128 8.02213 3.05514V8.01993H3.05734C2.75348 8.01993 2.46206 8.14064 2.24719 8.35551C2.03233 8.57037 1.91162 8.86179 1.91162 9.16565C1.91162 9.46952 2.03233 9.76094 2.24719 9.9758C2.46206 10.1907 2.75348 10.3114 3.05734 10.3114H8.02213V15.2762Z" fill="white"/>
</g>
<defs>
<clipPath id="clip0_5_1144">
<rect width="18.3315" height="18.3315" fill="white"/>
</clipPath>
</defs>
</svg>
