<svg width="163" height="45" viewBox="0 0 163 45" fill="none" xmlns="http://www.w3.org/2000/svg">
<path d="M45.1217 22.5C45.1217 34.9264 35.0208 45 22.5608 45C10.1008 45 0 34.9264 0 22.5C0 10.0736 10.1008 0 22.5608 0C35.0208 0 45.1217 10.0736 45.1217 22.5Z" fill="url(#paint0_linear_105_995)"/>
<path d="M42.5433 28.9286C42.5433 37.0945 35.9056 43.7143 27.7176 43.7143C19.5296 43.7143 12.8919 37.0945 12.8919 28.9286C12.8919 20.7626 19.5296 14.1429 27.7176 14.1429C35.9056 14.1429 42.5433 20.7626 42.5433 28.9286Z" fill="#EEEEEE"/>
<path d="M57.4496 20.0455C56.8233 20.0455 56.2849 19.9651 55.8344 19.8044C55.3839 19.6473 55.0085 19.4391 54.7082 19.1798C54.4115 18.9241 54.1753 18.6502 53.9995 18.358L55.0323 17.6347C55.1495 17.7881 55.2979 17.9635 55.4773 18.1607C55.6568 18.3616 55.9022 18.5351 56.2135 18.6812C56.5285 18.831 56.9405 18.9058 57.4496 18.9058C58.1308 18.9058 58.693 18.7415 59.1361 18.4127C59.5793 18.084 59.8009 17.569 59.8009 16.8677V15.1583H59.691C59.5958 15.3117 59.4603 15.5016 59.2845 15.7281C59.1123 15.9509 58.8633 16.15 58.5373 16.3253C58.215 16.497 57.7792 16.5828 57.2298 16.5828C56.5486 16.5828 55.937 16.4221 55.3949 16.1006C54.8565 15.7792 54.4299 15.3117 54.1149 14.6981C53.8036 14.0844 53.6479 13.3393 53.6479 12.4627C53.6479 11.6006 53.7999 10.85 54.1039 10.2108C54.4079 9.56798 54.8309 9.07123 55.3729 8.72058C55.915 8.36627 56.5413 8.18912 57.2518 8.18912C57.8012 8.18912 58.237 8.28044 58.5593 8.46307C58.8853 8.64205 59.1343 8.84659 59.3064 9.0767C59.4822 9.30317 59.6178 9.48945 59.713 9.63555H59.8448V8.2987H61.0974V16.9554C61.0974 17.6786 60.9326 18.2666 60.603 18.7196C60.277 19.1761 59.8375 19.5103 59.2845 19.7222C58.7351 19.9377 58.1235 20.0455 57.4496 20.0455ZM57.4056 15.4213C57.9257 15.4213 58.3652 15.3026 58.7241 15.0651C59.083 14.8277 59.3559 14.4862 59.5427 14.0406C59.7295 13.595 59.8228 13.0617 59.8228 12.4407C59.8228 11.8344 59.7313 11.2993 59.5482 10.8354C59.365 10.3716 59.094 10.0081 58.7351 9.74513C58.3762 9.48214 57.933 9.35065 57.4056 9.35065C56.8562 9.35065 56.3984 9.48945 56.0322 9.76705C55.6696 10.0446 55.3967 10.4172 55.2136 10.8847C55.0342 11.3523 54.9444 11.8709 54.9444 12.4407C54.9444 13.0252 55.036 13.542 55.2191 13.9913C55.4059 14.4369 55.6806 14.7875 56.0432 15.0432C56.4094 15.2953 56.8636 15.4213 57.4056 15.4213Z" fill="black"/>
<path d="M67.0086 16.8896C66.1955 16.8896 65.4942 16.7106 64.9045 16.3527C64.3185 15.9911 63.8662 15.487 63.5476 14.8405C63.2326 14.1903 63.0751 13.4343 63.0751 12.5722C63.0751 11.7102 63.2326 10.9505 63.5476 10.293C63.8662 9.6319 64.3094 9.11688 64.8771 8.74797C65.4484 8.37541 66.115 8.18912 66.8768 8.18912C67.3163 8.18912 67.7503 8.26217 68.1788 8.40828C68.6073 8.55438 68.9973 8.7918 69.3489 9.12054C69.7005 9.44562 69.9807 9.87662 70.1895 10.4136C70.3982 10.9505 70.5026 11.6116 70.5026 12.3969V12.9448H63.9981V11.8271H69.1841C69.1841 11.3523 69.0889 10.9286 68.8985 10.556C68.7117 10.1834 68.4443 9.88941 68.0964 9.6739C67.7521 9.4584 67.3456 9.35065 66.8768 9.35065C66.3604 9.35065 65.9135 9.47849 65.5363 9.73417C65.1627 9.9862 64.8752 10.3149 64.6738 10.7204C64.4724 11.1258 64.3716 11.5605 64.3716 12.0244V12.7695C64.3716 13.405 64.4815 13.9438 64.7013 14.3858C64.9247 14.8241 65.2341 15.1583 65.6297 15.3884C66.0252 15.6149 66.4849 15.7281 67.0086 15.7281C67.3492 15.7281 67.6569 15.6806 67.9316 15.5856C68.2099 15.487 68.4498 15.3409 68.6512 15.1473C68.8527 14.9501 69.0083 14.7054 69.1182 14.4131L70.3708 14.7638C70.2389 15.1875 70.0173 15.5601 69.706 15.8815C69.3947 16.1993 69.0102 16.4476 68.5524 16.6266C68.0945 16.8019 67.58 16.8896 67.0086 16.8896Z" fill="black"/>
<path d="M73.7714 11.6518V16.7143H72.4749V8.2987H73.7274V9.61364H73.8373C74.0351 9.18628 74.3354 8.84294 74.7383 8.5836C75.1411 8.32062 75.6612 8.18912 76.2985 8.18912C76.8698 8.18912 77.3698 8.30601 77.7983 8.53977C78.2268 8.76989 78.5601 9.12054 78.7981 9.59172C79.0362 10.0593 79.1552 10.651 79.1552 11.3669V16.7143H77.8587V11.4545C77.8587 10.7934 77.6866 10.2784 77.3423 9.9095C76.998 9.53693 76.5256 9.35065 75.9249 9.35065C75.5111 9.35065 75.1411 9.44014 74.8152 9.61911C74.4929 9.79809 74.2383 10.0593 74.0516 10.4026C73.8648 10.7459 73.7714 11.1623 73.7714 11.6518Z" fill="black"/>
<path d="M85.0623 16.8896C84.2493 16.8896 83.5479 16.7106 82.9582 16.3527C82.3722 15.9911 81.9199 15.487 81.6013 14.8405C81.2863 14.1903 81.1288 13.4343 81.1288 12.5722C81.1288 11.7102 81.2863 10.9505 81.6013 10.293C81.9199 9.6319 82.3631 9.11688 82.9308 8.74797C83.5021 8.37541 84.1687 8.18912 84.9305 8.18912C85.37 8.18912 85.804 8.26217 86.2325 8.40828C86.661 8.55438 87.051 8.7918 87.4026 9.12054C87.7542 9.44562 88.0344 9.87662 88.2432 10.4136C88.452 10.9505 88.5563 11.6116 88.5563 12.3969V12.9448H82.0518V11.8271H87.2378C87.2378 11.3523 87.1426 10.9286 86.9522 10.556C86.7654 10.1834 86.498 9.88941 86.1501 9.6739C85.8058 9.4584 85.3993 9.35065 84.9305 9.35065C84.4141 9.35065 83.9672 9.47849 83.59 9.73417C83.2164 9.9862 82.9289 10.3149 82.7275 10.7204C82.5261 11.1258 82.4253 11.5605 82.4253 12.0244V12.7695C82.4253 13.405 82.5352 13.9438 82.755 14.3858C82.9784 14.8241 83.2879 15.1583 83.6834 15.3884C84.0789 15.6149 84.5386 15.7281 85.0623 15.7281C85.4029 15.7281 85.7106 15.6806 85.9853 15.5856C86.2636 15.487 86.5035 15.3409 86.7049 15.1473C86.9064 14.9501 87.062 14.7054 87.1719 14.4131L88.4245 14.7638C88.2926 15.1875 88.0711 15.5601 87.7597 15.8815C87.4484 16.1993 87.0639 16.4476 86.6061 16.6266C86.1482 16.8019 85.6337 16.8896 85.0623 16.8896Z" fill="black"/>
<path d="M90.5286 16.7143V8.2987H91.7811V9.56981H91.869C92.0229 9.15341 92.3012 8.81554 92.7041 8.55621C93.1069 8.29687 93.5611 8.16721 94.0665 8.16721C94.1617 8.16721 94.2808 8.16903 94.4236 8.17269C94.5665 8.17634 94.6745 8.18182 94.7477 8.18912V9.50406C94.7038 9.4931 94.6031 9.47666 94.4456 9.45475C94.2918 9.42918 94.1288 9.4164 93.9566 9.4164C93.5464 9.4164 93.1802 9.50223 92.8579 9.6739C92.5393 9.84192 92.2866 10.0757 92.0998 10.3752C91.9166 10.6711 91.8251 11.0089 91.8251 11.3888V16.7143H90.5286Z" fill="black"/>
<path d="M96.2846 16.7143V8.2987H97.5811V16.7143H96.2846ZM96.9438 6.8961C96.6911 6.8961 96.4732 6.81027 96.2901 6.6386C96.1106 6.46692 96.0209 6.26055 96.0209 6.01948C96.0209 5.77841 96.1106 5.57204 96.2901 5.40036C96.4732 5.22869 96.6911 5.14286 96.9438 5.14286C97.1966 5.14286 97.4127 5.22869 97.5921 5.40036C97.7752 5.57204 97.8668 5.77841 97.8668 6.01948C97.8668 6.26055 97.7752 6.46692 97.5921 6.6386C97.4127 6.81027 97.1966 6.8961 96.9438 6.8961Z" fill="black"/>
<path d="M103.384 16.8896C102.593 16.8896 101.912 16.7033 101.34 16.3308C100.769 15.9582 100.329 15.445 100.022 14.7912C99.7141 14.1374 99.5602 13.3904 99.5602 12.5503C99.5602 11.6956 99.7177 10.9414 100.033 10.2875C100.351 9.63007 100.794 9.11688 101.362 8.74797C101.934 8.37541 102.6 8.18912 103.362 8.18912C103.955 8.18912 104.49 8.2987 104.966 8.51786C105.442 8.73701 105.832 9.04383 106.136 9.43831C106.44 9.83279 106.629 10.293 106.702 10.819H105.406C105.307 10.4355 105.087 10.0958 104.746 9.79992C104.409 9.50041 103.955 9.35065 103.384 9.35065C102.878 9.35065 102.435 9.48214 102.054 9.74513C101.677 10.0045 101.382 10.3715 101.17 10.8464C100.961 11.3176 100.857 11.8709 100.857 12.5065C100.857 13.1567 100.959 13.7228 101.164 14.205C101.373 14.6871 101.666 15.0615 102.043 15.3281C102.424 15.5948 102.871 15.7281 103.384 15.7281C103.721 15.7281 104.027 15.6696 104.301 15.5528C104.576 15.4359 104.809 15.2679 104.999 15.0487C105.189 14.8295 105.325 14.5666 105.406 14.2597H106.702C106.629 14.7565 106.448 15.2039 106.158 15.6021C105.873 15.9965 105.493 16.3107 105.021 16.5444C104.552 16.7746 104.006 16.8896 103.384 16.8896Z" fill="black"/>
<path d="M114.245 5.49351V16.7143H112.948V5.49351H114.245Z" fill="black"/>
<path d="M120.048 16.8896C119.286 16.8896 118.617 16.7088 118.042 16.3472C117.471 15.9856 117.024 15.4797 116.702 14.8295C116.383 14.1794 116.224 13.4196 116.224 12.5503C116.224 11.6737 116.383 10.9085 116.702 10.2547C117.024 9.60085 117.471 9.09314 118.042 8.73153C118.617 8.36993 119.286 8.18912 120.048 8.18912C120.809 8.18912 121.476 8.36993 122.047 8.73153C122.622 9.09314 123.069 9.60085 123.388 10.2547C123.71 10.9085 123.871 11.6737 123.871 12.5503C123.871 13.4196 123.71 14.1794 123.388 14.8295C123.069 15.4797 122.622 15.9856 122.047 16.3472C121.476 16.7088 120.809 16.8896 120.048 16.8896ZM120.048 15.7281C120.626 15.7281 121.102 15.5802 121.476 15.2843C121.85 14.9884 122.126 14.5994 122.306 14.1173C122.485 13.6351 122.575 13.1128 122.575 12.5503C122.575 11.9878 122.485 11.4637 122.306 10.9779C122.126 10.4921 121.85 10.0994 121.476 9.79992C121.102 9.50041 120.626 9.35065 120.048 9.35065C119.469 9.35065 118.993 9.50041 118.619 9.79992C118.246 10.0994 117.969 10.4921 117.79 10.9779C117.61 11.4637 117.521 11.9878 117.521 12.5503C117.521 13.1128 117.61 13.6351 117.79 14.1173C117.969 14.5994 118.246 14.9884 118.619 15.2843C118.993 15.5802 119.469 15.7281 120.048 15.7281Z" fill="black"/>
<path d="M129.256 20.0455C128.63 20.0455 128.092 19.9651 127.641 19.8044C127.191 19.6473 126.815 19.4391 126.515 19.1798C126.218 18.9241 125.982 18.6502 125.806 18.358L126.839 17.6347C126.956 17.7881 127.105 17.9635 127.284 18.1607C127.464 18.3616 127.709 18.5351 128.02 18.6812C128.335 18.831 128.747 18.9058 129.256 18.9058C129.938 18.9058 130.5 18.7415 130.943 18.4127C131.386 18.084 131.608 17.569 131.608 16.8677V15.1583H131.498C131.403 15.3117 131.267 15.5016 131.091 15.7281C130.919 15.9509 130.67 16.15 130.344 16.3253C130.022 16.497 129.586 16.5828 129.037 16.5828C128.356 16.5828 127.744 16.4221 127.202 16.1006C126.663 15.7792 126.237 15.3117 125.922 14.6981C125.61 14.0844 125.455 13.3393 125.455 12.4627C125.455 11.6006 125.607 10.85 125.911 10.2108C126.215 9.56798 126.638 9.07123 127.18 8.72058C127.722 8.36627 128.348 8.18912 129.059 8.18912C129.608 8.18912 130.044 8.28044 130.366 8.46307C130.692 8.64205 130.941 8.84659 131.113 9.0767C131.289 9.30317 131.425 9.48945 131.52 9.63555H131.652V8.2987H132.904V16.9554C132.904 17.6786 132.739 18.2666 132.41 18.7196C132.084 19.1761 131.644 19.5103 131.091 19.7222C130.542 19.9377 129.93 20.0455 129.256 20.0455ZM129.213 15.4213C129.733 15.4213 130.172 15.3026 130.531 15.0651C130.89 14.8277 131.163 14.4862 131.35 14.0406C131.536 13.595 131.63 13.0617 131.63 12.4407C131.63 11.8344 131.538 11.2993 131.355 10.8354C131.172 10.3716 130.901 10.0081 130.542 9.74513C130.183 9.48214 129.74 9.35065 129.213 9.35065C128.663 9.35065 128.205 9.48945 127.839 9.76705C127.477 10.0446 127.204 10.4172 127.021 10.8847C126.841 11.3523 126.751 11.8709 126.751 12.4407C126.751 13.0252 126.843 13.542 127.026 13.9913C127.213 14.4369 127.488 14.7875 127.85 15.0432C128.216 15.2953 128.67 15.4213 129.213 15.4213Z" fill="black"/>
<path d="M138.706 16.8896C137.944 16.8896 137.275 16.7088 136.7 16.3472C136.129 15.9856 135.682 15.4797 135.36 14.8295C135.041 14.1794 134.882 13.4196 134.882 12.5503C134.882 11.6737 135.041 10.9085 135.36 10.2547C135.682 9.60085 136.129 9.09314 136.7 8.73153C137.275 8.36993 137.944 8.18912 138.706 8.18912C139.467 8.18912 140.134 8.36993 140.705 8.73153C141.28 9.09314 141.727 9.60085 142.046 10.2547C142.368 10.9085 142.529 11.6737 142.529 12.5503C142.529 13.4196 142.368 14.1794 142.046 14.8295C141.727 15.4797 141.28 15.9856 140.705 16.3472C140.134 16.7088 139.467 16.8896 138.706 16.8896ZM138.706 15.7281C139.284 15.7281 139.76 15.5802 140.134 15.2843C140.508 14.9884 140.784 14.5994 140.964 14.1173C141.143 13.6351 141.233 13.1128 141.233 12.5503C141.233 11.9878 141.143 11.4637 140.964 10.9779C140.784 10.4921 140.508 10.0994 140.134 9.79992C139.76 9.50041 139.284 9.35065 138.706 9.35065C138.127 9.35065 137.651 9.50041 137.277 9.79992C136.904 10.0994 136.627 10.4921 136.448 10.9779C136.268 11.4637 136.179 11.9878 136.179 12.5503C136.179 13.1128 136.268 13.6351 136.448 14.1173C136.627 14.5994 136.904 14.9884 137.277 15.2843C137.651 15.5802 138.127 15.7281 138.706 15.7281Z" fill="black"/>
<path d="M60.3722 37.546C59.0037 37.546 57.8265 37.2568 56.8407 36.6785C55.8607 36.0944 55.1068 35.2847 54.5791 34.2495C54.0572 33.2143 53.7962 32.0229 53.7962 30.6754C53.7962 29.3106 54.0601 28.1134 54.5878 27.084C55.1213 26.0488 55.8781 25.242 56.8581 24.6637C57.8381 24.0796 59.0037 23.7875 60.3548 23.7875C61.5204 23.7875 62.541 23.9986 63.4166 24.4208C64.2923 24.843 64.9853 25.4358 65.4956 26.1992C66.0059 26.9626 66.2871 27.859 66.3393 28.8884H62.8426C62.744 28.2233 62.483 27.6884 62.0597 27.2835C61.6422 26.8729 61.0942 26.6676 60.4157 26.6676C59.8416 26.6676 59.34 26.8238 58.9109 27.1361C58.4876 27.4426 58.157 27.8908 57.9193 28.4807C57.6815 29.0706 57.5626 29.7848 57.5626 30.6234C57.5626 31.4735 57.6786 32.1964 57.9106 32.7921C58.1483 33.3878 58.4818 33.8418 58.9109 34.1541C59.34 34.4664 59.8416 34.6225 60.4157 34.6225C60.839 34.6225 61.2189 34.5358 61.5552 34.3623C61.8973 34.1888 62.1786 33.9372 62.3989 33.6075C62.6251 33.2721 62.773 32.8702 62.8426 32.4017H66.3393C66.2813 33.4196 66.003 34.316 65.5043 35.091C65.0114 35.8601 64.33 36.4616 63.4601 36.8953C62.5903 37.3291 61.561 37.546 60.3722 37.546Z" fill="black"/>
<path d="M74.7485 37.546C73.3973 37.546 72.2288 37.2597 71.243 36.6871C70.263 36.1088 69.5062 35.3049 68.9727 34.2755C68.4392 33.2403 68.1725 32.0403 68.1725 30.6754C68.1725 29.299 68.4392 28.0961 68.9727 27.0667C69.5062 26.0315 70.263 25.2276 71.243 24.655C72.2288 24.0767 73.3973 23.7875 74.7485 23.7875C76.0996 23.7875 77.2652 24.0767 78.2452 24.655C79.231 25.2276 79.9907 26.0315 80.5242 27.0667C81.0577 28.0961 81.3244 29.299 81.3244 30.6754C81.3244 32.0403 81.0577 33.2403 80.5242 34.2755C79.9907 35.3049 79.231 36.1088 78.2452 36.6871C77.2652 37.2597 76.0996 37.546 74.7485 37.546ZM74.7659 34.6832C75.3805 34.6832 75.8937 34.5097 76.3055 34.1627C76.7172 33.81 77.0274 33.33 77.2362 32.7227C77.4508 32.1155 77.558 31.4244 77.558 30.6494C77.558 29.8744 77.4508 29.1833 77.2362 28.5761C77.0274 27.9689 76.7172 27.4888 76.3055 27.1361C75.8937 26.7833 75.3805 26.6069 74.7659 26.6069C74.1454 26.6069 73.6235 26.7833 73.2001 27.1361C72.7826 27.4888 72.4666 27.9689 72.252 28.5761C72.0433 29.1833 71.9389 29.8744 71.9389 30.6494C71.9389 31.4244 72.0433 32.1155 72.252 32.7227C72.4666 33.33 72.7826 33.81 73.2001 34.1627C73.6235 34.5097 74.1454 34.6832 74.7659 34.6832Z" fill="black"/>
<path d="M83.7339 37.2857V23.961H87.2654V26.3119H87.422C87.7003 25.5312 88.1643 24.9153 88.8137 24.4642C89.4632 24.0131 90.2403 23.7875 91.1449 23.7875C92.0611 23.7875 92.8411 24.016 93.4848 24.4729C94.1284 24.924 94.5576 25.537 94.7721 26.3119H94.9113C95.1838 25.5485 95.6768 24.9384 96.39 24.4815C97.1091 24.0189 97.9586 23.7875 98.9386 23.7875C100.185 23.7875 101.197 24.1837 101.974 24.976C102.757 25.7625 103.149 26.8787 103.149 28.3245V37.2857H99.4518V29.0532C99.4518 28.313 99.2547 27.7578 98.8604 27.3876C98.466 27.0175 97.9731 26.8324 97.3816 26.8324C96.709 26.8324 96.1842 27.0464 95.8072 27.4744C95.4303 27.8966 95.2418 28.4546 95.2418 29.1486V37.2857H91.6494V28.9751C91.6494 28.3216 91.4609 27.8011 91.084 27.4137C90.7129 27.0262 90.2229 26.8324 89.614 26.8324C89.2023 26.8324 88.8311 26.9365 88.5006 27.1447C88.1758 27.3471 87.9178 27.6334 87.7264 28.0036C87.5351 28.3679 87.4394 28.7959 87.4394 29.2874V37.2857H83.7339Z" fill="black"/>
<path d="M106.076 42.2825V23.961H109.729V26.1992H109.894C110.057 25.8406 110.291 25.4763 110.599 25.1061C110.912 24.7302 111.318 24.4179 111.817 24.1692C112.321 23.9148 112.947 23.7875 113.695 23.7875C114.67 23.7875 115.568 24.042 116.392 24.5509C117.215 25.0541 117.874 25.8146 118.366 26.8324C118.859 27.8445 119.106 29.1139 119.106 30.6407C119.106 32.127 118.865 33.382 118.384 34.4056C117.908 35.4235 117.259 36.1956 116.435 36.7218C115.618 37.2423 114.702 37.5026 113.687 37.5026C112.968 37.5026 112.356 37.384 111.851 37.1469C111.353 36.9098 110.944 36.612 110.625 36.2534C110.306 35.8891 110.062 35.5218 109.894 35.1517H109.781V42.2825H106.076ZM109.703 30.6234C109.703 31.4157 109.813 32.1068 110.033 32.6967C110.254 33.2866 110.573 33.7463 110.99 34.076C111.408 34.3999 111.915 34.5618 112.512 34.5618C113.116 34.5618 113.626 34.397 114.043 34.0673C114.461 33.7319 114.777 33.2692 114.991 32.6793C115.212 32.0837 115.322 31.3983 115.322 30.6234C115.322 29.8542 115.215 29.1776 115 28.5934C114.786 28.0093 114.47 27.5525 114.052 27.2228C113.635 26.8932 113.121 26.7283 112.512 26.7283C111.909 26.7283 111.399 26.8874 110.982 27.2055C110.57 27.5235 110.254 27.9746 110.033 28.5587C109.813 29.1429 109.703 29.8311 109.703 30.6234Z" fill="black"/>
<path d="M125.386 37.5373C124.534 37.5373 123.774 37.3898 123.107 37.0949C122.44 36.7941 121.912 36.3517 121.524 35.7676C121.141 35.1777 120.95 34.4432 120.95 33.5642C120.95 32.8239 121.086 32.2022 121.359 31.6991C121.631 31.1959 122.002 30.7911 122.472 30.4846C122.942 30.1781 123.475 29.9467 124.073 29.7906C124.676 29.6344 125.308 29.5246 125.969 29.4609C126.746 29.38 127.372 29.3048 127.848 29.2354C128.323 29.1602 128.668 29.0503 128.883 28.9057C129.097 28.7612 129.205 28.5472 129.205 28.2638V28.2117C129.205 27.6623 129.031 27.2373 128.683 26.9365C128.341 26.6358 127.853 26.4854 127.221 26.4854C126.555 26.4854 126.024 26.6329 125.63 26.9279C125.235 27.217 124.974 27.5814 124.847 28.0209L121.42 27.7433C121.594 26.9336 121.936 26.2339 122.446 25.644C122.956 25.0483 123.614 24.5914 124.421 24.2733C125.232 23.9495 126.172 23.7875 127.239 23.7875C127.981 23.7875 128.691 23.8743 129.37 24.0478C130.054 24.2213 130.66 24.4902 131.188 24.8546C131.721 25.2189 132.142 25.6873 132.449 26.2599C132.756 26.8267 132.91 27.5062 132.91 28.2985V37.2857H129.396V35.438H129.292C129.077 35.8544 128.79 36.2216 128.43 36.5397C128.071 36.852 127.639 37.0978 127.134 37.277C126.63 37.4505 126.047 37.5373 125.386 37.5373ZM126.447 34.9869C126.992 34.9869 127.474 34.8799 127.891 34.6659C128.309 34.4461 128.636 34.1512 128.874 33.781C129.112 33.4109 129.231 32.9916 129.231 32.5232V31.1092C129.115 31.1844 128.955 31.2538 128.752 31.3174C128.555 31.3752 128.332 31.4301 128.083 31.4822C127.833 31.5285 127.584 31.5718 127.334 31.6123C127.085 31.647 126.859 31.6788 126.656 31.7077C126.221 31.7714 125.841 31.8726 125.517 32.0114C125.192 32.1502 124.94 32.3381 124.76 32.5752C124.58 32.8066 124.49 33.0957 124.49 33.4427C124.49 33.9459 124.673 34.3305 125.038 34.5965C125.409 34.8567 125.879 34.9869 126.447 34.9869Z" fill="black"/>
<path d="M139.49 29.5824V37.2857H135.785V23.961H139.316V26.3119H139.473C139.769 25.537 140.265 24.924 140.96 24.4729C141.656 24.016 142.5 23.7875 143.492 23.7875C144.42 23.7875 145.228 23.99 145.919 24.3948C146.609 24.7996 147.145 25.3779 147.528 26.1298C147.91 26.8758 148.102 27.7664 148.102 28.8016V37.2857H144.396V29.4609C144.402 28.6455 144.193 28.0093 143.77 27.5525C143.347 27.0898 142.764 26.8585 142.022 26.8585C141.523 26.8585 141.082 26.9655 140.7 27.1794C140.323 27.3934 140.027 27.7057 139.812 28.1163C139.604 28.5212 139.496 29.0098 139.49 29.5824Z" fill="black"/>
<path d="M152.832 42.2825C152.362 42.2825 151.921 42.2449 151.509 42.1697C151.104 42.1003 150.767 42.0107 150.5 41.9008L151.335 39.1421C151.77 39.2752 152.162 39.3475 152.51 39.359C152.863 39.3706 153.168 39.2896 153.423 39.1161C153.684 38.9426 153.896 38.6477 154.058 38.2313L154.276 37.6674L149.483 23.961H153.38L156.146 33.7463H156.285L159.077 23.961H163L157.807 38.7257C157.558 39.4429 157.218 40.0675 156.789 40.5995C156.366 41.1374 155.83 41.5509 155.18 41.84C154.531 42.135 153.748 42.2825 152.832 42.2825Z" fill="black"/>
<defs>
<linearGradient id="paint0_linear_105_995" x1="81.5" y1="0" x2="81.5" y2="45" gradientUnits="userSpaceOnUse">
<stop stop-color="#2096FF"/>
<stop offset="1" stop-color="#0052A3"/>
</linearGradient>
</defs>
</svg>
